<?xml version="1.0" encoding="utf-8"?>
<!DOCTYPE svg PUBLIC "-//W3C//DTD SVG 1.1//EN" "http://www.w3.org/Graphics/SVG/1.1/DTD/svg11.dtd">
<svg xmlns="http://www.w3.org/2000/svg" xmlns:xlink="http://www.w3.org/1999/xlink" version="1.1" baseProfile="full" width="2336" height="2336" viewBox="0 0 2336.00 2336.00" enable-background="new 0 0 2336.00 2336.00" xml:space="preserve">
	<rect x="3424" y="1984" fill="#FFFFFF" fill-opacity="1" stroke-width="10" stroke-linejoin="round" stroke="#C9C9C9" stroke-opacity="1" width="3040" height="3264"/>
	<line fill="none" stroke-width="10" stroke-linejoin="round" stroke="#C9C9C9" stroke-opacity="1" x1="-3664" y1="1792" x2="-3728" y2="1856"/>
	<line fill="none" stroke-width="10" stroke-linejoin="round" stroke="#C9C9C9" stroke-opacity="1" x1="-2704" y1="1792" x2="-2768" y2="1856"/>
	<line fill="none" stroke-width="10" stroke-linejoin="round" stroke="#C9C9C9" stroke-opacity="1" x1="-2640" y1="1792" x2="-2576" y2="1856"/>
	<line fill="none" stroke-width="10" stroke-linejoin="round" stroke="#C9C9C9" stroke-opacity="1" x1="-3024" y1="1792" x2="-3088" y2="1856"/>
	<line fill="none" stroke-width="10" stroke-linejoin="round" stroke="#C9C9C9" stroke-opacity="1" x1="-2960" y1="1792" x2="-2896" y2="1856"/>
	<line fill="none" stroke-width="10" stroke-linejoin="round" stroke="#C9C9C9" stroke-opacity="1" x1="-3344.01" y1="1791.99" x2="-3408.01" y2="1855.99"/>
	<line fill="none" stroke-width="10" stroke-linejoin="round" stroke="#C9C9C9" stroke-opacity="1" x1="-3280.01" y1="1791.99" x2="-3216.01" y2="1855.99"/>
	<line fill="none" stroke-width="10" stroke-linejoin="round" stroke="#C9C9C9" stroke-opacity="1" x1="-3600" y1="1792" x2="-3536" y2="1856"/>
	<ellipse fill="#FFFFFF" fill-opacity="1" stroke-width="5" stroke-linejoin="round" stroke="#C9C9C9" stroke-opacity="1" cx="-2576" cy="1856" rx="32" ry="32"/>
	<path fill="#FFFFFF" fill-opacity="1" stroke-width="5" stroke-linejoin="round" stroke="#C9C9C9" stroke-opacity="1" d="M -2768,1888C -2750.33,1888 -2736,1873.67 -2736,1856C -2736,1838.33 -2750.33,1824 -2768,1824C -2785.67,1824 -2800,1838.33 -2800,1856C -2800,1873.67 -2785.67,1888 -2768,1888 Z "/>
	<path fill="#FFFFFF" fill-opacity="1" stroke-width="5" stroke-linejoin="round" stroke="#C9C9C9" stroke-opacity="1" d="M -2896,1888C -2878.33,1888 -2864,1873.67 -2864,1856C -2864,1838.33 -2878.33,1824 -2896,1824C -2913.67,1824 -2928,1838.33 -2928,1856C -2928,1873.67 -2913.67,1888 -2896,1888 Z "/>
	<path fill="#FFFFFF" fill-opacity="1" stroke-width="5" stroke-linejoin="round" stroke="#C9C9C9" stroke-opacity="1" d="M -3088,1888C -3070.33,1888 -3056,1873.67 -3056,1856C -3056,1838.33 -3070.33,1824 -3088,1824C -3105.67,1824 -3120,1838.33 -3120,1856C -3120,1873.67 -3105.67,1888 -3088,1888 Z "/>
	<ellipse fill="#FFFFFF" fill-opacity="1" stroke-width="5" stroke-linejoin="round" stroke="#C9C9C9" stroke-opacity="1" cx="-3216.01" cy="1855.99" rx="32" ry="32.0001"/>
	<ellipse fill="#FFFFFF" fill-opacity="1" stroke-width="5" stroke-linejoin="round" stroke="#C9C9C9" stroke-opacity="1" cx="-3408.01" cy="1855.99" rx="32" ry="32.0001"/>
	<ellipse fill="#FFFFFF" fill-opacity="1" stroke-width="5" stroke-linejoin="round" stroke="#C9C9C9" stroke-opacity="1" cx="-3536" cy="1856" rx="32" ry="32"/>
	<path fill="#FFFFFF" fill-opacity="1" stroke-width="5" stroke-linejoin="round" stroke="#C9C9C9" stroke-opacity="1" d="M -3728,1888C -3710.33,1888 -3696,1873.67 -3696,1856C -3696,1838.33 -3710.33,1824 -3728,1824C -3745.67,1824 -3760,1838.33 -3760,1856C -3760,1873.67 -3745.67,1888 -3728,1888 Z "/>
	<line fill="none" stroke-width="20" stroke-linejoin="round" stroke="#FF0000" stroke-opacity="1" x1="-3760" y1="1632" x2="-3664" y2="1728"/>
	<line fill="none" stroke-width="10" stroke-linejoin="round" stroke="#C9C9C9" stroke-opacity="1" x1="-2640" y1="1728" x2="-2576" y2="1664"/>
	<path fill="#FFFFFF" fill-opacity="1" stroke-width="5" stroke-linejoin="round" stroke="#C9C9C9" stroke-opacity="1" d="M -2576,1632C -2558.33,1632 -2544,1646.33 -2544,1664C -2544,1681.67 -2558.33,1696 -2576,1696C -2593.67,1696 -2608,1681.67 -2608,1664C -2608,1646.33 -2593.67,1632 -2576,1632 Z "/>
	<line fill="none" stroke-width="10" stroke-linejoin="round" stroke="#C9C9C9" stroke-opacity="1" x1="-2800" y1="1568" x2="-2736" y2="1504"/>
	<line fill="none" stroke-width="10" stroke-linejoin="round" stroke="#C9C9C9" stroke-opacity="1" x1="-2864" y1="1568" x2="-2928" y2="1504"/>
	<path fill="#FFFFFF" fill-opacity="1" stroke-width="5" stroke-linejoin="round" stroke="#C9C9C9" stroke-opacity="1" d="M -2928,1472C -2910.33,1472 -2896,1486.33 -2896,1504C -2896,1521.67 -2910.33,1536 -2928,1536C -2945.67,1536 -2960,1521.67 -2960,1504C -2960,1486.33 -2945.67,1472 -2928,1472 Z "/>
	<ellipse fill="#FFFFFF" fill-opacity="1" stroke-width="5" stroke-linejoin="round" stroke="#C9C9C9" stroke-opacity="1" cx="-2736" cy="1504" rx="31.9999" ry="32"/>
	<line fill="none" stroke-width="10" stroke-linejoin="round" stroke="#C9C9C9" stroke-opacity="1" x1="-3120" y1="1568" x2="-3056" y2="1504"/>
	<line fill="none" stroke-width="10" stroke-linejoin="round" stroke="#C9C9C9" stroke-opacity="1" x1="-3184" y1="1568" x2="-3248" y2="1504"/>
	<path fill="#FFFFFF" fill-opacity="1" stroke-width="5" stroke-linejoin="round" stroke="#C9C9C9" stroke-opacity="1" d="M -3248,1472C -3230.33,1472 -3216,1486.33 -3216,1504C -3216,1521.67 -3230.33,1536 -3248,1536C -3265.67,1536 -3280,1521.67 -3280,1504C -3280,1486.33 -3265.67,1472 -3248,1472 Z "/>
	<path fill="#FFFFFF" fill-opacity="1" stroke-width="5" stroke-linejoin="round" stroke="#C9C9C9" stroke-opacity="1" d="M -3056,1472C -3038.33,1472 -3024,1486.33 -3024,1504C -3024,1521.67 -3038.33,1536 -3056,1536C -3073.67,1536 -3088,1521.67 -3088,1504C -3088,1486.33 -3073.67,1472 -3056,1472 Z "/>
	<line fill="none" stroke-width="10" stroke-linejoin="round" stroke="#C9C9C9" stroke-opacity="1" x1="-3440" y1="1568" x2="-3376" y2="1504"/>
	<line fill="none" stroke-width="10" stroke-linejoin="round" stroke="#C9C9C9" stroke-opacity="1" x1="-3504" y1="1568" x2="-3568" y2="1504"/>
	<path fill="#FFFFFF" fill-opacity="1" stroke-width="5" stroke-linejoin="round" stroke="#C9C9C9" stroke-opacity="1" d="M -3568,1472C -3550.33,1472 -3536,1486.33 -3536,1504C -3536,1521.67 -3550.33,1536 -3568,1536C -3585.67,1536 -3600,1521.67 -3600,1504C -3600,1486.33 -3585.67,1472 -3568,1472 Z "/>
	<path fill="#FFFFFF" fill-opacity="1" stroke-width="5" stroke-linejoin="round" stroke="#C9C9C9" stroke-opacity="1" d="M -3376,1472C -3358.33,1472 -3344,1486.33 -3344,1504C -3344,1521.67 -3358.33,1536 -3376,1536C -3393.67,1536 -3408,1521.67 -3408,1504C -3408,1486.33 -3393.67,1472 -3376,1472 Z "/>
	<line fill="none" stroke-width="10" stroke-linejoin="round" stroke="#C9C9C9" stroke-opacity="1" x1="-3760" y1="1568" x2="-3696" y2="1504"/>
	<line fill="none" stroke-width="10" stroke-linejoin="round" stroke="#C9C9C9" stroke-opacity="1" x1="-3888" y1="1696" x2="-3824" y2="1632"/>
	<line fill="none" stroke-width="20" stroke-linejoin="round" stroke="#FF0000" stroke-opacity="1" x1="-3600" y1="1728" x2="-3504" y2="1632"/>
	<line fill="none" stroke-width="20" stroke-linejoin="round" stroke="#FF0000" stroke-opacity="1" x1="-2960" y1="1728" x2="-2864" y2="1632"/>
	<line fill="none" stroke-width="20" stroke-linejoin="round" stroke="#FF0000" stroke-opacity="1" x1="-2800" y1="1632" x2="-2704" y2="1728"/>
	<line fill="none" stroke-width="20" stroke-linejoin="round" stroke="#FF0000" stroke-opacity="1" x1="-3120" y1="1632" x2="-3024" y2="1728"/>
	<line fill="none" stroke-width="20" stroke-linejoin="round" stroke="#FF0000" stroke-opacity="1" x1="-3440" y1="1632" x2="-3312" y2="1760"/>
	<line fill="none" stroke-width="20" stroke-linejoin="round" stroke="#FF0000" stroke-opacity="1" x1="-3280" y1="1728" x2="-3184" y2="1632"/>
	<line fill="none" stroke-width="10" stroke-linejoin="round" stroke="#C9C9C9" stroke-opacity="1" x1="-3824" y1="1568" x2="-3888" y2="1504"/>
	<path fill="#FFFFFF" fill-opacity="1" stroke-width="10" stroke-linejoin="round" stroke="#FF0000" stroke-opacity="1" d="M -2992,1696C -2956.65,1696 -2928,1724.65 -2928,1760C -2928,1795.35 -2956.65,1824 -2992,1824C -3027.35,1824 -3056,1795.35 -3056,1760C -3056,1724.65 -3027.35,1696 -2992,1696 Z "/>
	<ellipse fill="#FFFFFF" fill-opacity="1" stroke-width="10" stroke-linejoin="round" stroke="#FF0000" stroke-opacity="1" cx="-2832" cy="1600" rx="64" ry="64"/>
	<ellipse fill="#FFFFFF" fill-opacity="1" stroke-width="10" stroke-linejoin="round" stroke="#FF0000" stroke-opacity="1" cx="-2672" cy="1760" rx="64" ry="64"/>
	<path fill="#FFFFFF" fill-opacity="1" stroke-width="10" stroke-linejoin="round" stroke="#FF0000" stroke-opacity="1" d="M -3792,1536C -3756.65,1536 -3728,1564.65 -3728,1600C -3728,1635.35 -3756.65,1664 -3792,1664C -3827.35,1664 -3856,1635.35 -3856,1600C -3856,1564.65 -3827.35,1536 -3792,1536 Z "/>
	<ellipse fill="#FFFFFF" fill-opacity="1" stroke-width="10" stroke-linejoin="round" stroke="#FF0000" stroke-opacity="1" cx="-3152" cy="1600" rx="64" ry="64"/>
	<path fill="#FFFFFF" fill-opacity="1" stroke-width="10" stroke-linejoin="round" stroke="#FF0000" stroke-opacity="1" d="M -3312,1696C -3276.65,1696 -3248,1724.65 -3248,1760C -3248,1795.35 -3276.65,1824 -3312,1824C -3347.35,1824 -3376,1795.35 -3376,1760C -3376,1724.65 -3347.35,1696 -3312,1696 Z "/>
	<path fill="#FFFFFF" fill-opacity="1" stroke-width="10" stroke-linejoin="round" stroke="#FF0000" stroke-opacity="1" d="M -3472,1536C -3507.35,1536 -3536,1564.65 -3536,1600C -3536,1635.35 -3507.35,1664 -3472,1664C -3436.65,1664 -3408,1635.35 -3408,1600C -3408,1564.65 -3436.65,1536 -3472,1536 Z "/>
	<path fill="#FFFFFF" fill-opacity="1" stroke-width="10" stroke-linejoin="round" stroke="#FF0000" stroke-opacity="1" d="M -3632,1696C -3596.65,1696 -3568,1724.65 -3568,1760C -3568,1795.35 -3596.65,1824 -3632,1824C -3667.35,1824 -3696,1795.35 -3696,1760C -3696,1724.65 -3667.35,1696 -3632,1696 Z "/>
	<path fill="#FFFFFF" fill-opacity="1" stroke-width="5" stroke-linejoin="round" stroke="#C9C9C9" stroke-opacity="1" d="M -3888,1472C -3870.33,1472 -3856,1486.33 -3856,1504C -3856,1521.67 -3870.33,1536 -3888,1536C -3905.67,1536 -3920,1521.67 -3920,1504C -3920,1486.33 -3905.67,1472 -3888,1472 Z "/>
	<path fill="#FFFFFF" fill-opacity="1" stroke-width="5" stroke-linejoin="round" stroke="#C9C9C9" stroke-opacity="1" d="M -3696,1472C -3678.33,1472 -3664,1486.33 -3664,1504C -3664,1521.67 -3678.33,1536 -3696,1536C -3713.67,1536 -3728,1521.67 -3728,1504C -3728,1486.33 -3713.67,1472 -3696,1472 Z "/>
	<path fill="#FFFFFF" fill-opacity="1" stroke-width="5" stroke-linejoin="round" stroke="#C9C9C9" stroke-opacity="1" d="M -3888,1664C -3870.33,1664 -3856,1678.33 -3856,1696C -3856,1713.67 -3870.33,1728 -3888,1728C -3905.67,1728 -3920,1713.67 -3920,1696C -3920,1678.33 -3905.67,1664 -3888,1664 Z "/>
	<line fill="none" stroke-width="10" stroke-linejoin="round" stroke="#C9C9C9" stroke-opacity="1" x1="424.4" y1="1032.8" x2="424.4" y2="1122.93"/>
	<line fill="none" stroke-width="10" stroke-linejoin="round" stroke="#C9C9C9" stroke-opacity="1" x1="1100.4" y1="356.801" x2="1100.4" y2="446.934"/>
	<line fill="none" stroke-width="10" stroke-linejoin="round" stroke="#C9C9C9" stroke-opacity="1" x1="1145.47" y1="311.734" x2="1235.6" y2="311.734"/>
	<line fill="none" stroke-width="10" stroke-linejoin="round" stroke="#C9C9C9" stroke-opacity="1" x1="875.067" y1="582.134" x2="875.067" y2="672.267"/>
	<line fill="none" stroke-width="10" stroke-linejoin="round" stroke="#C9C9C9" stroke-opacity="1" x1="920.133" y1="537.068" x2="1010.27" y2="537.068"/>
	<line fill="none" stroke-width="10" stroke-linejoin="round" stroke="#C9C9C9" stroke-opacity="1" x1="649.724" y1="807.468" x2="649.724" y2="897.601"/>
	<line fill="none" stroke-width="10" stroke-linejoin="round" stroke="#C9C9C9" stroke-opacity="1" x1="694.791" y1="762.401" x2="784.924" y2="762.401"/>
	<line fill="none" stroke-width="10" stroke-linejoin="round" stroke="#C9C9C9" stroke-opacity="1" x1="469.467" y1="987.734" x2="559.6" y2="987.734"/>
	<path fill="#FFFFFF" fill-opacity="1" stroke-width="5" stroke-linejoin="round" stroke="#C9C9C9" stroke-opacity="1" d="M 1258.13,334.267C 1270.58,321.823 1270.58,301.646 1258.13,289.201C 1245.69,276.756 1225.51,276.756 1213.07,289.201C 1200.62,301.646 1200.62,321.823 1213.07,334.267C 1225.51,346.712 1245.69,346.712 1258.13,334.267 Z "/>
	<path fill="#FFFFFF" fill-opacity="1" stroke-width="5" stroke-linejoin="round" stroke="#C9C9C9" stroke-opacity="1" d="M 1122.93,469.467C 1135.38,457.022 1135.38,436.845 1122.93,424.401C 1110.49,411.956 1090.31,411.956 1077.87,424.401C 1065.42,436.845 1065.42,457.022 1077.87,469.467C 1090.31,481.912 1110.49,481.912 1122.93,469.467 Z "/>
	<path fill="#FFFFFF" fill-opacity="1" stroke-width="5" stroke-linejoin="round" stroke="#C9C9C9" stroke-opacity="1" d="M 1032.8,559.601C 1045.24,547.156 1045.24,526.979 1032.8,514.534C 1020.35,502.089 1000.18,502.089 987.733,514.534C 975.288,526.979 975.288,547.156 987.733,559.601C 1000.18,572.046 1020.35,572.046 1032.8,559.601 Z "/>
	<path fill="#FFFFFF" fill-opacity="1" stroke-width="5" stroke-linejoin="round" stroke="#C9C9C9" stroke-opacity="1" d="M 897.6,694.801C 910.045,682.356 910.045,662.179 897.6,649.734C 885.155,637.289 864.978,637.289 852.533,649.734C 840.088,662.179 840.088,682.356 852.533,694.801C 864.978,707.245 885.155,707.245 897.6,694.801 Z "/>
	<path fill="#FFFFFF" fill-opacity="1" stroke-width="5" stroke-linejoin="round" stroke="#C9C9C9" stroke-opacity="1" d="M 807.457,784.934C 819.902,772.489 819.902,752.312 807.457,739.867C 795.013,727.422 774.836,727.422 762.391,739.867C 749.946,752.312 749.946,772.489 762.391,784.934C 774.836,797.379 795.013,797.379 807.457,784.934 Z "/>
	<path fill="#FFFFFF" fill-opacity="1" stroke-width="5" stroke-linejoin="round" stroke="#C9C9C9" stroke-opacity="1" d="M 672.257,920.134C 684.702,907.689 684.702,887.512 672.257,875.067C 659.813,862.623 639.636,862.623 627.191,875.067C 614.746,887.512 614.746,907.689 627.191,920.134C 639.636,932.579 659.813,932.579 672.257,920.134 Z "/>
	<path fill="#FFFFFF" fill-opacity="1" stroke-width="5" stroke-linejoin="round" stroke="#C9C9C9" stroke-opacity="1" d="M 582.133,1010.27C 594.578,997.823 594.578,977.646 582.133,965.201C 569.688,952.756 549.511,952.756 537.066,965.201C 524.622,977.646 524.622,997.823 537.066,1010.27C 549.511,1022.71 569.688,1022.71 582.133,1010.27 Z "/>
	<path fill="#FFFFFF" fill-opacity="1" stroke-width="5" stroke-linejoin="round" stroke="#C9C9C9" stroke-opacity="1" d="M 446.933,1145.47C 459.378,1133.02 459.378,1112.85 446.933,1100.4C 434.489,1087.96 414.312,1087.96 401.867,1100.4C 389.422,1112.85 389.422,1133.02 401.867,1145.47C 414.312,1157.91 434.489,1157.91 446.933,1145.47 Z "/>
	<line fill="none" stroke-width="20" stroke-linejoin="round" stroke="#FF0000" stroke-opacity="1" x1="244.134" y1="987.734" x2="379.333" y2="987.734"/>
	<line fill="none" stroke-width="10" stroke-linejoin="round" stroke="#C9C9C9" stroke-opacity="1" x1="1100.4" y1="266.667" x2="1100.4" y2="176.534"/>
	<path fill="#FFFFFF" fill-opacity="1" stroke-width="5" stroke-linejoin="round" stroke="#C9C9C9" stroke-opacity="1" d="M 1077.87,154.001C 1090.31,141.556 1110.49,141.556 1122.93,154.001C 1135.38,166.446 1135.38,186.623 1122.93,199.068C 1110.49,211.512 1090.31,211.512 1077.87,199.068C 1065.42,186.623 1065.42,166.446 1077.87,154.001 Z "/>
	<line fill="none" stroke-width="10" stroke-linejoin="round" stroke="#C9C9C9" stroke-opacity="1" x1="875.066" y1="266.667" x2="875.066" y2="176.534"/>
	<line fill="none" stroke-width="10" stroke-linejoin="round" stroke="#C9C9C9" stroke-opacity="1" x1="830" y1="311.734" x2="739.867" y2="311.734"/>
	<path fill="#FFFFFF" fill-opacity="1" stroke-width="5" stroke-linejoin="round" stroke="#C9C9C9" stroke-opacity="1" d="M 717.333,289.201C 729.778,276.756 749.955,276.756 762.4,289.201C 774.845,301.646 774.845,321.823 762.4,334.268C 749.955,346.712 729.778,346.712 717.333,334.268C 704.888,321.823 704.888,301.646 717.333,289.201 Z "/>
	<path fill="#FFFFFF" fill-opacity="1" stroke-width="5" stroke-linejoin="round" stroke="#C9C9C9" stroke-opacity="1" d="M 852.533,154.001C 864.978,141.556 885.155,141.556 897.6,154.001C 910.044,166.446 910.044,186.623 897.6,199.068C 885.155,211.512 864.978,211.512 852.533,199.068C 840.088,186.623 840.088,166.446 852.533,154.001 Z "/>
	<line fill="none" stroke-width="10" stroke-linejoin="round" stroke="#C9C9C9" stroke-opacity="1" x1="649.733" y1="492.001" x2="649.733" y2="401.868"/>
	<line fill="none" stroke-width="10" stroke-linejoin="round" stroke="#C9C9C9" stroke-opacity="1" x1="604.667" y1="537.067" x2="514.533" y2="537.068"/>
	<path fill="#FFFFFF" fill-opacity="1" stroke-width="5" stroke-linejoin="round" stroke="#C9C9C9" stroke-opacity="1" d="M 492,514.534C 504.445,502.089 524.622,502.089 537.067,514.534C 549.511,526.979 549.511,547.156 537.067,559.601C 524.622,572.046 504.445,572.046 492,559.601C 479.555,547.156 479.555,526.979 492,514.534 Z "/>
	<path fill="#FFFFFF" fill-opacity="1" stroke-width="5" stroke-linejoin="round" stroke="#C9C9C9" stroke-opacity="1" d="M 627.2,379.334C 639.645,366.89 659.822,366.89 672.266,379.334C 684.711,391.779 684.711,411.956 672.266,424.401C 659.822,436.846 639.645,436.846 627.2,424.401C 614.755,411.956 614.755,391.779 627.2,379.334 Z "/>
	<line fill="none" stroke-width="10" stroke-linejoin="round" stroke="#C9C9C9" stroke-opacity="1" x1="424.4" y1="717.334" x2="424.4" y2="627.201"/>
	<line fill="none" stroke-width="10" stroke-linejoin="round" stroke="#C9C9C9" stroke-opacity="1" x1="379.333" y1="762.401" x2="289.2" y2="762.401"/>
	<path fill="#FFFFFF" fill-opacity="1" stroke-width="5" stroke-linejoin="round" stroke="#C9C9C9" stroke-opacity="1" d="M 266.667,739.868C 279.111,727.423 299.289,727.423 311.733,739.868C 324.178,752.312 324.178,772.489 311.733,784.934C 299.289,797.379 279.111,797.379 266.667,784.934C 254.222,772.489 254.222,752.312 266.667,739.868 Z "/>
	<path fill="#FFFFFF" fill-opacity="1" stroke-width="5" stroke-linejoin="round" stroke="#C9C9C9" stroke-opacity="1" d="M 401.867,604.667C 414.311,592.223 434.488,592.223 446.933,604.667C 459.378,617.112 459.378,637.289 446.933,649.734C 434.488,662.179 414.311,662.179 401.867,649.734C 389.422,637.289 389.422,617.112 401.867,604.667 Z "/>
	<line fill="none" stroke-width="10" stroke-linejoin="round" stroke="#C9C9C9" stroke-opacity="1" x1="199.067" y1="942.667" x2="199.067" y2="852.534"/>
	<line fill="none" stroke-width="10" stroke-linejoin="round" stroke="#C9C9C9" stroke-opacity="1" x1="199.067" y1="1122.93" x2="199.067" y2="1032.8"/>
	<line fill="none" stroke-width="20" stroke-linejoin="round" stroke="#FF0000" stroke-opacity="1" x1="424.4" y1="942.667" x2="424.4" y2="807.467"/>
	<line fill="none" stroke-width="20" stroke-linejoin="round" stroke="#FF0000" stroke-opacity="1" x1="875.067" y1="492" x2="875.067" y2="356.8"/>
	<line fill="none" stroke-width="20" stroke-linejoin="round" stroke="#FF0000" stroke-opacity="1" x1="920.133" y1="311.734" x2="1055.33" y2="311.734"/>
	<line fill="none" stroke-width="20" stroke-linejoin="round" stroke="#FF0000" stroke-opacity="1" x1="694.8" y1="537.067" x2="830" y2="537.067"/>
	<line fill="none" stroke-width="20" stroke-linejoin="round" stroke="#FF0000" stroke-opacity="1" x1="469.467" y1="762.4" x2="649.733" y2="762.4"/>
	<line fill="none" stroke-width="20" stroke-linejoin="round" stroke="#FF0000" stroke-opacity="1" x1="649.733" y1="717.334" x2="649.733" y2="582.134"/>
	<line fill="none" stroke-width="10" stroke-linejoin="round" stroke="#C9C9C9" stroke-opacity="1" x1="154" y1="987.734" x2="63.8669" y2="987.734"/>
	<path fill="#FF0000" fill-opacity="1" stroke-width="10" stroke-linejoin="round" stroke="#FF0000" stroke-opacity="1" d="M 830,492.001C 854.89,467.111 895.244,467.111 920.133,492.001C 945.023,516.891 945.023,557.245 920.133,582.134C 895.244,607.024 854.89,607.024 830,582.134C 805.11,557.245 805.11,516.891 830,492.001 Z "/>
	<path fill="#FF0000" fill-opacity="1" stroke-width="10" stroke-linejoin="round" stroke="#FF0000" stroke-opacity="1" d="M 830,266.667C 805.111,291.557 805.111,331.911 830,356.801C 854.89,381.69 895.244,381.69 920.134,356.801C 945.023,331.911 945.023,291.557 920.134,266.667C 895.244,241.778 854.89,241.778 830,266.667 Z "/>
	<path fill="#FF0000" fill-opacity="1" stroke-width="10" stroke-linejoin="round" stroke="#FF0000" stroke-opacity="1" d="M 1055.33,266.667C 1030.44,291.557 1030.44,331.911 1055.33,356.801C 1080.22,381.69 1120.58,381.69 1145.47,356.801C 1170.36,331.911 1170.36,291.557 1145.47,266.667C 1120.58,241.778 1080.22,241.778 1055.33,266.667 Z "/>
	<path fill="#FF0000" fill-opacity="1" stroke-width="10" stroke-linejoin="round" stroke="#FF0000" stroke-opacity="1" d="M 154,942.667C 178.89,917.777 219.244,917.777 244.133,942.667C 269.023,967.557 269.023,1007.91 244.133,1032.8C 219.244,1057.69 178.89,1057.69 154,1032.8C 129.111,1007.91 129.111,967.557 154,942.667 Z "/>
	<path fill="#FF0000" fill-opacity="1" stroke-width="10" stroke-linejoin="round" stroke="#FF0000" stroke-opacity="1" d="M 604.667,492.001C 579.777,516.89 579.777,557.244 604.667,582.134C 629.557,607.023 669.911,607.023 694.8,582.134C 719.69,557.244 719.69,516.89 694.8,492.001C 669.911,467.111 629.557,467.111 604.667,492.001 Z "/>
	<path fill="#FF0000" fill-opacity="1" stroke-width="10" stroke-linejoin="round" stroke="#FF0000" stroke-opacity="1" d="M 604.667,717.334C 629.556,692.444 669.91,692.444 694.8,717.334C 719.69,742.224 719.69,782.578 694.8,807.467C 669.91,832.357 629.556,832.357 604.667,807.467C 579.777,782.578 579.777,742.224 604.667,717.334 Z "/>
	<path fill="#FF0000" fill-opacity="1" stroke-width="10" stroke-linejoin="round" stroke="#FF0000" stroke-opacity="1" d="M 379.334,717.334C 354.444,742.224 354.444,782.578 379.334,807.467C 404.223,832.357 444.578,832.357 469.467,807.467C 494.357,782.578 494.357,742.224 469.467,717.334C 444.577,692.444 404.223,692.444 379.334,717.334 Z "/>
	<path fill="#FF0000" fill-opacity="1" stroke-width="10" stroke-linejoin="round" stroke="#FF0000" stroke-opacity="1" d="M 379.334,942.667C 404.223,917.777 444.577,917.777 469.467,942.667C 494.357,967.557 494.357,1007.91 469.467,1032.8C 444.577,1057.69 404.223,1057.69 379.334,1032.8C 354.444,1007.91 354.444,967.557 379.334,942.667 Z "/>
	<path fill="#FFFFFF" fill-opacity="1" stroke-width="5" stroke-linejoin="round" stroke="#C9C9C9" stroke-opacity="1" d="M 41.3335,965.201C 53.7783,952.756 73.9554,952.756 86.4002,965.201C 98.845,977.645 98.845,997.822 86.4002,1010.27C 73.9554,1022.71 53.7783,1022.71 41.3335,1010.27C 28.8887,997.822 28.8887,977.645 41.3335,965.201 Z "/>
	<path fill="#FFFFFF" fill-opacity="1" stroke-width="5" stroke-linejoin="round" stroke="#C9C9C9" stroke-opacity="1" d="M 176.533,830.001C 188.978,817.556 209.155,817.556 221.6,830.001C 234.045,842.445 234.045,862.622 221.6,875.067C 209.155,887.512 188.978,887.512 176.533,875.067C 164.089,862.622 164.089,842.445 176.533,830.001 Z "/>
	<path fill="#FFFFFF" fill-opacity="1" stroke-width="5" stroke-linejoin="round" stroke="#C9C9C9" stroke-opacity="1" d="M 176.534,1100.4C 188.979,1087.96 209.156,1087.96 221.6,1100.4C 234.045,1112.85 234.045,1133.02 221.6,1145.47C 209.156,1157.91 188.979,1157.91 176.534,1145.47C 164.089,1133.02 164.089,1112.85 176.534,1100.4 Z "/>
	<line fill="none" stroke-width="10" stroke-linejoin="round" stroke="#C9C9C9" stroke-opacity="1" x1="1303.2" y1="424.401" x2="1213.07" y2="424.401"/>
	<line fill="none" stroke-width="10" stroke-linejoin="round" stroke="#C9C9C9" stroke-opacity="1" x1="1979.2" y1="1100.4" x2="1889.07" y2="1100.4"/>
	<line fill="none" stroke-width="10" stroke-linejoin="round" stroke="#C9C9C9" stroke-opacity="1" x1="2024.27" y1="1145.47" x2="2024.27" y2="1235.6"/>
	<line fill="none" stroke-width="10" stroke-linejoin="round" stroke="#C9C9C9" stroke-opacity="1" x1="1753.87" y1="875.067" x2="1663.73" y2="875.067"/>
	<line fill="none" stroke-width="10" stroke-linejoin="round" stroke="#C9C9C9" stroke-opacity="1" x1="1798.93" y1="920.134" x2="1798.93" y2="1010.27"/>
	<line fill="none" stroke-width="10" stroke-linejoin="round" stroke="#C9C9C9" stroke-opacity="1" x1="1528.53" y1="649.724" x2="1438.4" y2="649.724"/>
	<line fill="none" stroke-width="10" stroke-linejoin="round" stroke="#C9C9C9" stroke-opacity="1" x1="1573.6" y1="694.791" x2="1573.6" y2="784.924"/>
	<line fill="none" stroke-width="10" stroke-linejoin="round" stroke="#C9C9C9" stroke-opacity="1" x1="1348.27" y1="469.467" x2="1348.27" y2="559.6"/>
	<path fill="#FFFFFF" fill-opacity="1" stroke-width="5" stroke-linejoin="round" stroke="#C9C9C9" stroke-opacity="1" d="M 2001.73,1258.13C 2014.18,1270.58 2034.35,1270.58 2046.8,1258.13C 2059.24,1245.69 2059.24,1225.51 2046.8,1213.07C 2034.35,1200.62 2014.18,1200.62 2001.73,1213.07C 1989.29,1225.51 1989.29,1245.69 2001.73,1258.13 Z "/>
	<path fill="#FFFFFF" fill-opacity="1" stroke-width="5" stroke-linejoin="round" stroke="#C9C9C9" stroke-opacity="1" d="M 1866.53,1122.93C 1878.98,1135.38 1899.15,1135.38 1911.6,1122.93C 1924.04,1110.49 1924.04,1090.31 1911.6,1077.87C 1899.15,1065.42 1878.98,1065.42 1866.53,1077.87C 1854.09,1090.31 1854.09,1110.49 1866.53,1122.93 Z "/>
	<path fill="#FFFFFF" fill-opacity="1" stroke-width="5" stroke-linejoin="round" stroke="#C9C9C9" stroke-opacity="1" d="M 1776.4,1032.8C 1788.84,1045.24 1809.02,1045.24 1821.47,1032.8C 1833.91,1020.36 1833.91,1000.18 1821.47,987.734C 1809.02,975.289 1788.84,975.289 1776.4,987.734C 1763.95,1000.18 1763.95,1020.36 1776.4,1032.8 Z "/>
	<path fill="#FFFFFF" fill-opacity="1" stroke-width="5" stroke-linejoin="round" stroke="#C9C9C9" stroke-opacity="1" d="M 1641.2,897.6C 1653.64,910.045 1673.82,910.045 1686.27,897.6C 1698.71,885.155 1698.71,864.978 1686.27,852.534C 1673.82,840.089 1653.64,840.089 1641.2,852.534C 1628.75,864.978 1628.75,885.155 1641.2,897.6 Z "/>
	<path fill="#FFFFFF" fill-opacity="1" stroke-width="5" stroke-linejoin="round" stroke="#C9C9C9" stroke-opacity="1" d="M 1551.07,807.458C 1563.51,819.903 1583.69,819.903 1596.13,807.458C 1608.58,795.013 1608.58,774.836 1596.13,762.391C 1583.69,749.946 1563.51,749.946 1551.07,762.391C 1538.62,774.836 1538.62,795.013 1551.07,807.458 Z "/>
	<path fill="#FFFFFF" fill-opacity="1" stroke-width="5" stroke-linejoin="round" stroke="#C9C9C9" stroke-opacity="1" d="M 1415.87,672.258C 1428.31,684.703 1448.49,684.703 1460.93,672.258C 1473.38,659.813 1473.38,639.636 1460.93,627.191C 1448.49,614.747 1428.31,614.747 1415.87,627.191C 1403.42,639.636 1403.42,659.813 1415.87,672.258 Z "/>
	<path fill="#FFFFFF" fill-opacity="1" stroke-width="5" stroke-linejoin="round" stroke="#C9C9C9" stroke-opacity="1" d="M 1325.73,582.134C 1338.18,594.579 1358.35,594.579 1370.8,582.134C 1383.24,569.689 1383.24,549.512 1370.8,537.067C 1358.35,524.622 1338.18,524.622 1325.73,537.067C 1313.29,549.512 1313.29,569.689 1325.73,582.134 Z "/>
	<path fill="#FFFFFF" fill-opacity="1" stroke-width="5" stroke-linejoin="round" stroke="#C9C9C9" stroke-opacity="1" d="M 1190.53,446.934C 1202.98,459.379 1223.15,459.379 1235.6,446.934C 1248.04,434.489 1248.04,414.312 1235.6,401.867C 1223.15,389.422 1202.98,389.422 1190.53,401.867C 1178.09,414.312 1178.09,434.489 1190.53,446.934 Z "/>
	<line fill="none" stroke-width="20" stroke-linejoin="round" stroke="#FF0000" stroke-opacity="1" x1="1348.27" y1="244.134" x2="1348.27" y2="379.334"/>
	<line fill="none" stroke-width="10" stroke-linejoin="round" stroke="#C9C9C9" stroke-opacity="1" x1="2069.33" y1="1100.4" x2="2159.47" y2="1100.4"/>
	<path fill="#FFFFFF" fill-opacity="1" stroke-width="5" stroke-linejoin="round" stroke="#C9C9C9" stroke-opacity="1" d="M 2182,1077.87C 2194.44,1090.31 2194.44,1110.49 2182,1122.93C 2169.55,1135.38 2149.38,1135.38 2136.93,1122.93C 2124.49,1110.49 2124.49,1090.31 2136.93,1077.87C 2149.38,1065.42 2169.55,1065.42 2182,1077.87 Z "/>
	<line fill="none" stroke-width="10" stroke-linejoin="round" stroke="#C9C9C9" stroke-opacity="1" x1="2069.33" y1="875.067" x2="2159.47" y2="875.067"/>
	<line fill="none" stroke-width="10" stroke-linejoin="round" stroke="#C9C9C9" stroke-opacity="1" x1="2024.27" y1="830" x2="2024.27" y2="739.867"/>
	<path fill="#FFFFFF" fill-opacity="1" stroke-width="5" stroke-linejoin="round" stroke="#C9C9C9" stroke-opacity="1" d="M 2046.8,717.333C 2059.24,729.778 2059.24,749.955 2046.8,762.4C 2034.35,774.845 2014.18,774.845 2001.73,762.4C 1989.29,749.955 1989.29,729.778 2001.73,717.333C 2014.18,704.889 2034.35,704.889 2046.8,717.333 Z "/>
	<path fill="#FFFFFF" fill-opacity="1" stroke-width="5" stroke-linejoin="round" stroke="#C9C9C9" stroke-opacity="1" d="M 2182,852.533C 2194.44,864.978 2194.44,885.155 2182,897.6C 2169.55,910.045 2149.38,910.045 2136.93,897.6C 2124.49,885.155 2124.49,864.978 2136.93,852.533C 2149.38,840.089 2169.55,840.089 2182,852.533 Z "/>
	<line fill="none" stroke-width="10" stroke-linejoin="round" stroke="#C9C9C9" stroke-opacity="1" x1="1844" y1="649.734" x2="1934.13" y2="649.733"/>
	<line fill="none" stroke-width="10" stroke-linejoin="round" stroke="#C9C9C9" stroke-opacity="1" x1="1798.93" y1="604.667" x2="1798.93" y2="514.534"/>
	<path fill="#FFFFFF" fill-opacity="1" stroke-width="5" stroke-linejoin="round" stroke="#C9C9C9" stroke-opacity="1" d="M 1821.47,492C 1833.91,504.445 1833.91,524.622 1821.47,537.067C 1809.02,549.512 1788.84,549.512 1776.4,537.067C 1763.95,524.622 1763.95,504.445 1776.4,492C 1788.84,479.556 1809.02,479.556 1821.47,492 Z "/>
	<path fill="#FFFFFF" fill-opacity="1" stroke-width="5" stroke-linejoin="round" stroke="#C9C9C9" stroke-opacity="1" d="M 1956.67,627.2C 1969.11,639.645 1969.11,659.822 1956.67,672.267C 1944.22,684.711 1924.04,684.711 1911.6,672.267C 1899.15,659.822 1899.15,639.645 1911.6,627.2C 1924.04,614.755 1944.22,614.755 1956.67,627.2 Z "/>
	<line fill="none" stroke-width="10" stroke-linejoin="round" stroke="#C9C9C9" stroke-opacity="1" x1="1618.67" y1="424.4" x2="1708.8" y2="424.4"/>
	<line fill="none" stroke-width="10" stroke-linejoin="round" stroke="#C9C9C9" stroke-opacity="1" x1="1573.6" y1="379.334" x2="1573.6" y2="289.2"/>
	<path fill="#FFFFFF" fill-opacity="1" stroke-width="5" stroke-linejoin="round" stroke="#C9C9C9" stroke-opacity="1" d="M 1596.13,266.667C 1608.58,279.112 1608.58,299.289 1596.13,311.734C 1583.69,324.178 1563.51,324.178 1551.07,311.734C 1538.62,299.289 1538.62,279.112 1551.07,266.667C 1563.51,254.222 1583.69,254.222 1596.13,266.667 Z "/>
	<path fill="#FFFFFF" fill-opacity="1" stroke-width="5" stroke-linejoin="round" stroke="#C9C9C9" stroke-opacity="1" d="M 1731.33,401.867C 1743.78,414.312 1743.78,434.489 1731.33,446.934C 1718.89,459.378 1698.71,459.378 1686.27,446.934C 1673.82,434.489 1673.82,414.312 1686.27,401.867C 1698.71,389.422 1718.89,389.422 1731.33,401.867 Z "/>
	<line fill="none" stroke-width="10" stroke-linejoin="round" stroke="#C9C9C9" stroke-opacity="1" x1="1393.33" y1="199.067" x2="1483.47" y2="199.067"/>
	<line fill="none" stroke-width="10" stroke-linejoin="round" stroke="#C9C9C9" stroke-opacity="1" x1="1213.07" y1="199.068" x2="1303.2" y2="199.068"/>
	<line fill="none" stroke-width="20" stroke-linejoin="round" stroke="#FF0000" stroke-opacity="1" x1="1393.33" y1="424.401" x2="1528.53" y2="424.401"/>
	<line fill="none" stroke-width="20" stroke-linejoin="round" stroke="#FF0000" stroke-opacity="1" x1="1844" y1="875.067" x2="1979.2" y2="875.067"/>
	<line fill="none" stroke-width="20" stroke-linejoin="round" stroke="#FF0000" stroke-opacity="1" x1="2024.27" y1="920.134" x2="2024.27" y2="1055.33"/>
	<line fill="none" stroke-width="20" stroke-linejoin="round" stroke="#FF0000" stroke-opacity="1" x1="1798.93" y1="694.8" x2="1798.93" y2="830"/>
	<line fill="none" stroke-width="20" stroke-linejoin="round" stroke="#FF0000" stroke-opacity="1" x1="1573.6" y1="469.467" x2="1573.6" y2="649.734"/>
	<line fill="none" stroke-width="20" stroke-linejoin="round" stroke="#FF0000" stroke-opacity="1" x1="1618.67" y1="649.734" x2="1753.87" y2="649.734"/>
	<line fill="none" stroke-width="10" stroke-linejoin="round" stroke="#C9C9C9" stroke-opacity="1" x1="1348.27" y1="154.001" x2="1348.27" y2="63.8674"/>
	<path fill="#FF0000" fill-opacity="1" stroke-width="10" stroke-linejoin="round" stroke="#FF0000" stroke-opacity="1" d="M 1844,830.001C 1868.89,854.89 1868.89,895.244 1844,920.134C 1819.11,945.023 1778.76,945.023 1753.87,920.134C 1728.98,895.244 1728.98,854.89 1753.87,830.001C 1778.76,805.111 1819.11,805.111 1844,830.001 Z "/>
	<path fill="#FF0000" fill-opacity="1" stroke-width="10" stroke-linejoin="round" stroke="#FF0000" stroke-opacity="1" d="M 2069.33,830.001C 2044.44,805.111 2004.09,805.111 1979.2,830.001C 1954.31,854.891 1954.31,895.245 1979.2,920.134C 2004.09,945.024 2044.44,945.024 2069.33,920.134C 2094.22,895.245 2094.22,854.891 2069.33,830.001 Z "/>
	<path fill="#FF0000" fill-opacity="1" stroke-width="10" stroke-linejoin="round" stroke="#FF0000" stroke-opacity="1" d="M 2069.33,1055.33C 2044.44,1030.44 2004.09,1030.44 1979.2,1055.33C 1954.31,1080.22 1954.31,1120.58 1979.2,1145.47C 2004.09,1170.36 2044.44,1170.36 2069.33,1145.47C 2094.22,1120.58 2094.22,1080.22 2069.33,1055.33 Z "/>
	<path fill="#FF0000" fill-opacity="1" stroke-width="10" stroke-linejoin="round" stroke="#FF0000" stroke-opacity="1" d="M 1393.33,154.001C 1418.22,178.89 1418.22,219.244 1393.33,244.134C 1368.44,269.024 1328.09,269.023 1303.2,244.134C 1278.31,219.244 1278.31,178.89 1303.2,154.001C 1328.09,129.111 1368.44,129.111 1393.33,154.001 Z "/>
	<path fill="#FF0000" fill-opacity="1" stroke-width="10" stroke-linejoin="round" stroke="#FF0000" stroke-opacity="1" d="M 1844,604.667C 1819.11,579.778 1778.76,579.778 1753.87,604.667C 1728.98,629.557 1728.98,669.911 1753.87,694.801C 1778.76,719.69 1819.11,719.69 1844,694.801C 1868.89,669.911 1868.89,629.557 1844,604.667 Z "/>
	<path fill="#FF0000" fill-opacity="1" stroke-width="10" stroke-linejoin="round" stroke="#FF0000" stroke-opacity="1" d="M 1618.67,604.667C 1643.56,629.557 1643.56,669.911 1618.67,694.801C 1593.78,719.69 1553.42,719.69 1528.53,694.801C 1503.64,669.911 1503.64,629.557 1528.53,604.667C 1553.42,579.778 1593.78,579.778 1618.67,604.667 Z "/>
	<path fill="#FF0000" fill-opacity="1" stroke-width="10" stroke-linejoin="round" stroke="#FF0000" stroke-opacity="1" d="M 1618.67,379.334C 1593.78,354.444 1553.42,354.444 1528.53,379.334C 1503.64,404.224 1503.64,444.578 1528.53,469.467C 1553.42,494.357 1593.78,494.357 1618.67,469.467C 1643.56,444.578 1643.56,404.224 1618.67,379.334 Z "/>
	<path fill="#FF0000" fill-opacity="1" stroke-width="10" stroke-linejoin="round" stroke="#FF0000" stroke-opacity="1" d="M 1393.33,379.334C 1418.22,404.224 1418.22,444.578 1393.33,469.468C 1368.44,494.357 1328.09,494.357 1303.2,469.468C 1278.31,444.578 1278.31,404.224 1303.2,379.334C 1328.09,354.445 1368.44,354.445 1393.33,379.334 Z "/>
	<path fill="#FFFFFF" fill-opacity="1" stroke-width="5" stroke-linejoin="round" stroke="#C9C9C9" stroke-opacity="1" d="M 1370.8,41.3335C 1383.24,53.7783 1383.24,73.9553 1370.8,86.4001C 1358.35,98.845 1338.18,98.845 1325.73,86.4001C 1313.29,73.9553 1313.29,53.7783 1325.73,41.3335C 1338.18,28.8889 1358.35,28.8889 1370.8,41.3335 Z "/>
	<path fill="#FFFFFF" fill-opacity="1" stroke-width="5" stroke-linejoin="round" stroke="#C9C9C9" stroke-opacity="1" d="M 1506,176.534C 1518.44,188.979 1518.44,209.156 1506,221.6C 1493.55,234.045 1473.38,234.045 1460.93,221.6C 1448.49,209.156 1448.49,188.979 1460.93,176.534C 1473.38,164.089 1493.55,164.089 1506,176.534 Z "/>
	<path fill="#FFFFFF" fill-opacity="1" stroke-width="5" stroke-linejoin="round" stroke="#C9C9C9" stroke-opacity="1" d="M 1235.6,176.534C 1248.04,188.979 1248.04,209.156 1235.6,221.601C 1223.15,234.046 1202.98,234.046 1190.53,221.601C 1178.09,209.156 1178.09,188.979 1190.53,176.534C 1202.98,164.089 1223.15,164.089 1235.6,176.534 Z "/>
	<line fill="none" stroke-width="10" stroke-linejoin="round" stroke="#C9C9C9" stroke-opacity="1" x1="266.667" y1="1460.93" x2="176.533" y2="1460.93"/>
	<line fill="none" stroke-width="10" stroke-linejoin="round" stroke="#C9C9C9" stroke-opacity="1" x1="942.667" y1="2136.93" x2="852.533" y2="2136.93"/>
	<line fill="none" stroke-width="10" stroke-linejoin="round" stroke="#C9C9C9" stroke-opacity="1" x1="987.733" y1="2182" x2="987.733" y2="2272.13"/>
	<line fill="none" stroke-width="10" stroke-linejoin="round" stroke="#C9C9C9" stroke-opacity="1" x1="717.333" y1="1911.6" x2="627.2" y2="1911.6"/>
	<line fill="none" stroke-width="10" stroke-linejoin="round" stroke="#C9C9C9" stroke-opacity="1" x1="762.4" y1="1956.67" x2="762.4" y2="2046.8"/>
	<line fill="none" stroke-width="10" stroke-linejoin="round" stroke="#C9C9C9" stroke-opacity="1" x1="492" y1="1686.26" x2="401.866" y2="1686.26"/>
	<line fill="none" stroke-width="10" stroke-linejoin="round" stroke="#C9C9C9" stroke-opacity="1" x1="537.066" y1="1731.32" x2="537.066" y2="1821.46"/>
	<line fill="none" stroke-width="10" stroke-linejoin="round" stroke="#C9C9C9" stroke-opacity="1" x1="311.733" y1="1506" x2="311.733" y2="1596.13"/>
	<path fill="#FFFFFF" fill-opacity="1" stroke-width="5" stroke-linejoin="round" stroke="#C9C9C9" stroke-opacity="1" d="M 965.2,2294.67C 977.645,2307.11 997.822,2307.11 1010.27,2294.67C 1022.71,2282.22 1022.71,2262.04 1010.27,2249.6C 997.822,2237.16 977.645,2237.16 965.2,2249.6C 952.755,2262.04 952.755,2282.22 965.2,2294.67 Z "/>
	<path fill="#FFFFFF" fill-opacity="1" stroke-width="5" stroke-linejoin="round" stroke="#C9C9C9" stroke-opacity="1" d="M 830,2159.47C 842.445,2171.91 862.622,2171.91 875.067,2159.47C 887.511,2147.02 887.511,2126.84 875.067,2114.4C 862.622,2101.96 842.445,2101.96 830,2114.4C 817.555,2126.84 817.555,2147.02 830,2159.47 Z "/>
	<path fill="#FFFFFF" fill-opacity="1" stroke-width="5" stroke-linejoin="round" stroke="#C9C9C9" stroke-opacity="1" d="M 739.866,2069.33C 752.311,2081.78 772.488,2081.78 784.933,2069.33C 797.378,2056.89 797.378,2036.71 784.933,2024.27C 772.488,2011.82 752.311,2011.82 739.866,2024.27C 727.422,2036.71 727.422,2056.89 739.866,2069.33 Z "/>
	<path fill="#FFFFFF" fill-opacity="1" stroke-width="5" stroke-linejoin="round" stroke="#C9C9C9" stroke-opacity="1" d="M 604.667,1934.13C 617.111,1946.58 637.288,1946.58 649.733,1934.13C 662.178,1921.69 662.178,1901.51 649.733,1889.07C 637.288,1876.62 617.111,1876.62 604.667,1889.07C 592.222,1901.51 592.222,1921.69 604.667,1934.13 Z "/>
	<path fill="#FFFFFF" fill-opacity="1" stroke-width="5" stroke-linejoin="round" stroke="#C9C9C9" stroke-opacity="1" d="M 514.533,1843.99C 526.978,1856.44 547.155,1856.44 559.6,1843.99C 572.045,1831.55 572.045,1811.37 559.6,1798.92C 547.155,1786.48 526.978,1786.48 514.533,1798.92C 502.089,1811.37 502.089,1831.55 514.533,1843.99 Z "/>
	<path fill="#FFFFFF" fill-opacity="1" stroke-width="5" stroke-linejoin="round" stroke="#C9C9C9" stroke-opacity="1" d="M 379.333,1708.79C 391.778,1721.24 411.955,1721.24 424.4,1708.79C 436.845,1696.35 436.845,1676.17 424.4,1663.72C 411.955,1651.28 391.778,1651.28 379.333,1663.72C 366.888,1676.17 366.888,1696.35 379.333,1708.79 Z "/>
	<path fill="#FFFFFF" fill-opacity="1" stroke-width="5" stroke-linejoin="round" stroke="#C9C9C9" stroke-opacity="1" d="M 289.2,1618.67C 301.645,1631.11 321.822,1631.11 334.266,1618.67C 346.711,1606.22 346.711,1586.04 334.266,1573.6C 321.822,1561.16 301.645,1561.16 289.2,1573.6C 276.755,1586.04 276.755,1606.22 289.2,1618.67 Z "/>
	<path fill="#FFFFFF" fill-opacity="1" stroke-width="5" stroke-linejoin="round" stroke="#C9C9C9" stroke-opacity="1" d="M 154,1483.47C 166.445,1495.91 186.622,1495.91 199.067,1483.47C 211.511,1471.02 211.511,1450.84 199.067,1438.4C 186.622,1425.96 166.445,1425.96 154,1438.4C 141.555,1450.84 141.555,1471.02 154,1483.47 Z "/>
	<line fill="none" stroke-width="20" stroke-linejoin="round" stroke="#FF0000" stroke-opacity="1" x1="311.733" y1="1280.67" x2="311.733" y2="1415.87"/>
	<line fill="none" stroke-width="10" stroke-linejoin="round" stroke="#C9C9C9" stroke-opacity="1" x1="1032.8" y1="2136.93" x2="1122.93" y2="2136.93"/>
	<path fill="#FFFFFF" fill-opacity="1" stroke-width="5" stroke-linejoin="round" stroke="#C9C9C9" stroke-opacity="1" d="M 1145.47,2114.4C 1157.91,2126.84 1157.91,2147.02 1145.47,2159.47C 1133.02,2171.91 1112.84,2171.91 1100.4,2159.47C 1087.95,2147.02 1087.95,2126.84 1100.4,2114.4C 1112.84,2101.96 1133.02,2101.96 1145.47,2114.4 Z "/>
	<line fill="none" stroke-width="10" stroke-linejoin="round" stroke="#C9C9C9" stroke-opacity="1" x1="1032.8" y1="1911.6" x2="1122.93" y2="1911.6"/>
	<line fill="none" stroke-width="10" stroke-linejoin="round" stroke="#C9C9C9" stroke-opacity="1" x1="987.733" y1="1866.53" x2="987.733" y2="1776.4"/>
	<path fill="#FFFFFF" fill-opacity="1" stroke-width="5" stroke-linejoin="round" stroke="#C9C9C9" stroke-opacity="1" d="M 1010.27,1753.87C 1022.71,1766.31 1022.71,1786.49 1010.27,1798.93C 997.821,1811.38 977.644,1811.38 965.2,1798.93C 952.755,1786.49 952.755,1766.31 965.2,1753.87C 977.644,1741.42 997.821,1741.42 1010.27,1753.87 Z "/>
	<path fill="#FFFFFF" fill-opacity="1" stroke-width="5" stroke-linejoin="round" stroke="#C9C9C9" stroke-opacity="1" d="M 1145.47,1889.07C 1157.91,1901.51 1157.91,1921.69 1145.47,1934.13C 1133.02,1946.58 1112.84,1946.58 1100.4,1934.13C 1087.95,1921.69 1087.95,1901.51 1100.4,1889.07C 1112.84,1876.62 1133.02,1876.62 1145.47,1889.07 Z "/>
	<line fill="none" stroke-width="10" stroke-linejoin="round" stroke="#C9C9C9" stroke-opacity="1" x1="807.467" y1="1686.27" x2="897.6" y2="1686.27"/>
	<line fill="none" stroke-width="10" stroke-linejoin="round" stroke="#C9C9C9" stroke-opacity="1" x1="762.4" y1="1641.2" x2="762.4" y2="1551.07"/>
	<path fill="#FFFFFF" fill-opacity="1" stroke-width="5" stroke-linejoin="round" stroke="#C9C9C9" stroke-opacity="1" d="M 784.933,1528.53C 797.378,1540.98 797.378,1561.16 784.933,1573.6C 772.488,1586.04 752.311,1586.04 739.866,1573.6C 727.422,1561.16 727.422,1540.98 739.866,1528.53C 752.311,1516.09 772.488,1516.09 784.933,1528.53 Z "/>
	<path fill="#FFFFFF" fill-opacity="1" stroke-width="5" stroke-linejoin="round" stroke="#C9C9C9" stroke-opacity="1" d="M 920.133,1663.73C 932.578,1676.18 932.578,1696.36 920.133,1708.8C 907.688,1721.24 887.511,1721.24 875.066,1708.8C 862.622,1696.36 862.622,1676.18 875.066,1663.73C 887.511,1651.29 907.688,1651.29 920.133,1663.73 Z "/>
	<line fill="none" stroke-width="10" stroke-linejoin="round" stroke="#C9C9C9" stroke-opacity="1" x1="582.133" y1="1460.93" x2="672.266" y2="1460.93"/>
	<line fill="none" stroke-width="10" stroke-linejoin="round" stroke="#C9C9C9" stroke-opacity="1" x1="537.067" y1="1415.87" x2="537.067" y2="1325.73"/>
	<path fill="#FFFFFF" fill-opacity="1" stroke-width="5" stroke-linejoin="round" stroke="#C9C9C9" stroke-opacity="1" d="M 559.6,1303.2C 572.045,1315.65 572.045,1335.82 559.6,1348.27C 547.155,1360.71 526.978,1360.71 514.533,1348.27C 502.088,1335.82 502.088,1315.65 514.533,1303.2C 526.978,1290.76 547.155,1290.76 559.6,1303.2 Z "/>
	<path fill="#FFFFFF" fill-opacity="1" stroke-width="5" stroke-linejoin="round" stroke="#C9C9C9" stroke-opacity="1" d="M 694.8,1438.4C 707.245,1450.85 707.245,1471.02 694.8,1483.47C 682.355,1495.91 662.178,1495.91 649.733,1483.47C 637.288,1471.02 637.288,1450.85 649.733,1438.4C 662.178,1425.96 682.355,1425.96 694.8,1438.4 Z "/>
	<line fill="none" stroke-width="10" stroke-linejoin="round" stroke="#C9C9C9" stroke-opacity="1" x1="356.8" y1="1235.6" x2="446.933" y2="1235.6"/>
	<line fill="none" stroke-width="10" stroke-linejoin="round" stroke="#C9C9C9" stroke-opacity="1" x1="176.533" y1="1235.6" x2="266.667" y2="1235.6"/>
	<line fill="none" stroke-width="20" stroke-linejoin="round" stroke="#FF0000" stroke-opacity="1" x1="356.8" y1="1460.93" x2="492" y2="1460.93"/>
	<line fill="none" stroke-width="20" stroke-linejoin="round" stroke="#FF0000" stroke-opacity="1" x1="807.466" y1="1911.6" x2="942.666" y2="1911.6"/>
	<line fill="none" stroke-width="20" stroke-linejoin="round" stroke="#FF0000" stroke-opacity="1" x1="987.733" y1="1956.67" x2="987.733" y2="2091.87"/>
	<line fill="none" stroke-width="20" stroke-linejoin="round" stroke="#FF0000" stroke-opacity="1" x1="762.4" y1="1731.33" x2="762.4" y2="1866.53"/>
	<line fill="none" stroke-width="20" stroke-linejoin="round" stroke="#FF0000" stroke-opacity="1" x1="537.067" y1="1506" x2="537.067" y2="1686.27"/>
	<line fill="none" stroke-width="20" stroke-linejoin="round" stroke="#FF0000" stroke-opacity="1" x1="582.133" y1="1686.27" x2="717.333" y2="1686.27"/>
	<line fill="none" stroke-width="10" stroke-linejoin="round" stroke="#C9C9C9" stroke-opacity="1" x1="311.733" y1="1190.53" x2="311.733" y2="1100.4"/>
	<path fill="#FF0000" fill-opacity="1" stroke-width="10" stroke-linejoin="round" stroke="#FF0000" stroke-opacity="1" d="M 807.466,1866.53C 832.356,1891.42 832.356,1931.78 807.466,1956.67C 782.577,1981.56 742.223,1981.56 717.333,1956.67C 692.444,1931.78 692.443,1891.42 717.333,1866.53C 742.223,1841.64 782.577,1841.64 807.466,1866.53 Z "/>
	<path fill="#FF0000" fill-opacity="1" stroke-width="10" stroke-linejoin="round" stroke="#FF0000" stroke-opacity="1" d="M 1032.8,1866.53C 1007.91,1841.64 967.556,1841.64 942.666,1866.53C 917.777,1891.42 917.777,1931.78 942.666,1956.67C 967.556,1981.56 1007.91,1981.56 1032.8,1956.67C 1057.69,1931.78 1057.69,1891.42 1032.8,1866.53 Z "/>
	<path fill="#FF0000" fill-opacity="1" stroke-width="10" stroke-linejoin="round" stroke="#FF0000" stroke-opacity="1" d="M 1032.8,2091.87C 1007.91,2066.98 967.556,2066.98 942.666,2091.87C 917.777,2116.76 917.777,2157.11 942.666,2182C 967.556,2206.89 1007.91,2206.89 1032.8,2182C 1057.69,2157.11 1057.69,2116.76 1032.8,2091.87 Z "/>
	<path fill="#FF0000" fill-opacity="1" stroke-width="10" stroke-linejoin="round" stroke="#FF0000" stroke-opacity="1" d="M 356.8,1190.53C 381.69,1215.42 381.69,1255.78 356.8,1280.67C 331.91,1305.56 291.556,1305.56 266.667,1280.67C 241.777,1255.78 241.777,1215.42 266.667,1190.53C 291.556,1165.64 331.91,1165.64 356.8,1190.53 Z "/>
	<path fill="#FF0000" fill-opacity="1" stroke-width="10" stroke-linejoin="round" stroke="#FF0000" stroke-opacity="1" d="M 807.466,1641.2C 782.577,1616.31 742.223,1616.31 717.333,1641.2C 692.444,1666.09 692.444,1706.44 717.333,1731.33C 742.223,1756.22 782.577,1756.22 807.466,1731.33C 832.356,1706.44 832.356,1666.09 807.466,1641.2 Z "/>
	<path fill="#FF0000" fill-opacity="1" stroke-width="10" stroke-linejoin="round" stroke="#FF0000" stroke-opacity="1" d="M 582.133,1641.2C 607.023,1666.09 607.023,1706.44 582.133,1731.33C 557.244,1756.22 516.889,1756.22 492,1731.33C 467.11,1706.44 467.11,1666.09 492,1641.2C 516.889,1616.31 557.243,1616.31 582.133,1641.2 Z "/>
	<path fill="#FF0000" fill-opacity="1" stroke-width="10" stroke-linejoin="round" stroke="#FF0000" stroke-opacity="1" d="M 582.133,1415.87C 557.244,1390.98 516.89,1390.98 492,1415.87C 467.11,1440.76 467.11,1481.11 492,1506C 516.89,1530.89 557.244,1530.89 582.133,1506C 607.023,1481.11 607.023,1440.76 582.133,1415.87 Z "/>
	<path fill="#FF0000" fill-opacity="1" stroke-width="10" stroke-linejoin="round" stroke="#FF0000" stroke-opacity="1" d="M 356.8,1415.87C 381.69,1440.76 381.69,1481.11 356.8,1506C 331.91,1530.89 291.556,1530.89 266.667,1506C 241.777,1481.11 241.777,1440.76 266.667,1415.87C 291.556,1390.98 331.91,1390.98 356.8,1415.87 Z "/>
	<path fill="#FFFFFF" fill-opacity="1" stroke-width="5" stroke-linejoin="round" stroke="#C9C9C9" stroke-opacity="1" d="M 334.267,1077.87C 346.711,1090.31 346.711,1110.49 334.267,1122.93C 321.822,1135.38 301.645,1135.38 289.2,1122.93C 276.755,1110.49 276.755,1090.31 289.2,1077.87C 301.645,1065.42 321.822,1065.42 334.267,1077.87 Z "/>
	<path fill="#FFFFFF" fill-opacity="1" stroke-width="5" stroke-linejoin="round" stroke="#C9C9C9" stroke-opacity="1" d="M 469.467,1213.07C 481.911,1225.51 481.911,1245.69 469.467,1258.13C 457.022,1270.58 436.845,1270.58 424.4,1258.13C 411.955,1245.69 411.955,1225.51 424.4,1213.07C 436.845,1200.62 457.022,1200.62 469.467,1213.07 Z "/>
	<path fill="#FFFFFF" fill-opacity="1" stroke-width="5" stroke-linejoin="round" stroke="#C9C9C9" stroke-opacity="1" d="M 199.067,1213.07C 211.511,1225.51 211.511,1245.69 199.067,1258.13C 186.622,1270.58 166.445,1270.58 154,1258.13C 141.555,1245.69 141.555,1225.51 154,1213.07C 166.445,1200.62 186.622,1200.62 199.067,1213.07 Z "/>
	<line fill="none" stroke-width="10" stroke-linejoin="round" stroke="#C9C9C9" stroke-opacity="1" x1="1911.6" y1="1303.2" x2="1911.6" y2="1213.07"/>
	<line fill="none" stroke-width="10" stroke-linejoin="round" stroke="#C9C9C9" stroke-opacity="1" x1="1235.6" y1="1979.2" x2="1235.6" y2="1889.07"/>
	<line fill="none" stroke-width="10" stroke-linejoin="round" stroke="#C9C9C9" stroke-opacity="1" x1="1190.53" y1="2024.27" x2="1100.4" y2="2024.27"/>
	<line fill="none" stroke-width="10" stroke-linejoin="round" stroke="#C9C9C9" stroke-opacity="1" x1="1460.93" y1="1753.87" x2="1460.93" y2="1663.73"/>
	<line fill="none" stroke-width="10" stroke-linejoin="round" stroke="#C9C9C9" stroke-opacity="1" x1="1415.87" y1="1798.93" x2="1325.73" y2="1798.93"/>
	<line fill="none" stroke-width="10" stroke-linejoin="round" stroke="#C9C9C9" stroke-opacity="1" x1="1686.28" y1="1528.53" x2="1686.28" y2="1438.4"/>
	<line fill="none" stroke-width="10" stroke-linejoin="round" stroke="#C9C9C9" stroke-opacity="1" x1="1641.21" y1="1573.6" x2="1551.08" y2="1573.6"/>
	<line fill="none" stroke-width="10" stroke-linejoin="round" stroke="#C9C9C9" stroke-opacity="1" x1="1866.53" y1="1348.27" x2="1776.4" y2="1348.27"/>
	<path fill="#FFFFFF" fill-opacity="1" stroke-width="5" stroke-linejoin="round" stroke="#C9C9C9" stroke-opacity="1" d="M 1077.87,2001.73C 1065.42,2014.18 1065.42,2034.35 1077.87,2046.8C 1090.31,2059.24 1110.49,2059.24 1122.93,2046.8C 1135.38,2034.35 1135.38,2014.18 1122.93,2001.73C 1110.49,1989.29 1090.31,1989.29 1077.87,2001.73 Z "/>
	<path fill="#FFFFFF" fill-opacity="1" stroke-width="5" stroke-linejoin="round" stroke="#C9C9C9" stroke-opacity="1" d="M 1213.07,1866.53C 1200.62,1878.98 1200.62,1899.16 1213.07,1911.6C 1225.51,1924.04 1245.69,1924.04 1258.13,1911.6C 1270.58,1899.16 1270.58,1878.98 1258.13,1866.53C 1245.69,1854.09 1225.51,1854.09 1213.07,1866.53 Z "/>
	<path fill="#FFFFFF" fill-opacity="1" stroke-width="5" stroke-linejoin="round" stroke="#C9C9C9" stroke-opacity="1" d="M 1303.2,1776.4C 1290.75,1788.84 1290.75,1809.02 1303.2,1821.47C 1315.64,1833.91 1335.82,1833.91 1348.27,1821.47C 1360.71,1809.02 1360.71,1788.84 1348.27,1776.4C 1335.82,1763.96 1315.64,1763.96 1303.2,1776.4 Z "/>
	<path fill="#FFFFFF" fill-opacity="1" stroke-width="5" stroke-linejoin="round" stroke="#C9C9C9" stroke-opacity="1" d="M 1438.4,1641.2C 1425.95,1653.65 1425.95,1673.82 1438.4,1686.27C 1450.84,1698.71 1471.02,1698.71 1483.47,1686.27C 1495.91,1673.82 1495.91,1653.65 1483.47,1641.2C 1471.02,1628.76 1450.84,1628.76 1438.4,1641.2 Z "/>
	<path fill="#FFFFFF" fill-opacity="1" stroke-width="5" stroke-linejoin="round" stroke="#C9C9C9" stroke-opacity="1" d="M 1528.54,1551.07C 1516.1,1563.51 1516.1,1583.69 1528.54,1596.13C 1540.99,1608.58 1561.16,1608.58 1573.61,1596.13C 1586.05,1583.69 1586.05,1563.51 1573.61,1551.07C 1561.16,1538.62 1540.99,1538.62 1528.54,1551.07 Z "/>
	<path fill="#FFFFFF" fill-opacity="1" stroke-width="5" stroke-linejoin="round" stroke="#C9C9C9" stroke-opacity="1" d="M 1663.74,1415.87C 1651.3,1428.31 1651.3,1448.49 1663.74,1460.93C 1676.19,1473.38 1696.36,1473.38 1708.81,1460.93C 1721.25,1448.49 1721.25,1428.31 1708.81,1415.87C 1696.36,1403.42 1676.19,1403.42 1663.74,1415.87 Z "/>
	<path fill="#FFFFFF" fill-opacity="1" stroke-width="5" stroke-linejoin="round" stroke="#C9C9C9" stroke-opacity="1" d="M 1753.87,1325.73C 1741.42,1338.18 1741.42,1358.36 1753.87,1370.8C 1766.31,1383.24 1786.49,1383.24 1798.93,1370.8C 1811.38,1358.36 1811.38,1338.18 1798.93,1325.73C 1786.49,1313.29 1766.31,1313.29 1753.87,1325.73 Z "/>
	<path fill="#FFFFFF" fill-opacity="1" stroke-width="5" stroke-linejoin="round" stroke="#C9C9C9" stroke-opacity="1" d="M 1889.07,1190.53C 1876.62,1202.98 1876.62,1223.16 1889.07,1235.6C 1901.51,1248.05 1921.69,1248.05 1934.13,1235.6C 1946.58,1223.16 1946.58,1202.98 1934.13,1190.53C 1921.69,1178.09 1901.51,1178.09 1889.07,1190.53 Z "/>
	<line fill="none" stroke-width="20" stroke-linejoin="round" stroke="#FF0000" stroke-opacity="1" x1="2091.87" y1="1348.27" x2="1956.67" y2="1348.27"/>
	<line fill="none" stroke-width="10" stroke-linejoin="round" stroke="#C9C9C9" stroke-opacity="1" x1="1235.6" y1="2069.33" x2="1235.6" y2="2159.47"/>
	<path fill="#FFFFFF" fill-opacity="1" stroke-width="5" stroke-linejoin="round" stroke="#C9C9C9" stroke-opacity="1" d="M 1258.13,2182C 1245.69,2194.44 1225.51,2194.44 1213.07,2182C 1200.62,2169.55 1200.62,2149.38 1213.07,2136.93C 1225.51,2124.49 1245.69,2124.49 1258.13,2136.93C 1270.58,2149.38 1270.58,2169.55 1258.13,2182 Z "/>
	<line fill="none" stroke-width="10" stroke-linejoin="round" stroke="#C9C9C9" stroke-opacity="1" x1="1460.93" y1="2069.33" x2="1460.93" y2="2159.47"/>
	<line fill="none" stroke-width="10" stroke-linejoin="round" stroke="#C9C9C9" stroke-opacity="1" x1="1506" y1="2024.27" x2="1596.13" y2="2024.27"/>
	<path fill="#FFFFFF" fill-opacity="1" stroke-width="5" stroke-linejoin="round" stroke="#C9C9C9" stroke-opacity="1" d="M 1618.67,2046.8C 1606.22,2059.24 1586.04,2059.24 1573.6,2046.8C 1561.15,2034.35 1561.15,2014.18 1573.6,2001.73C 1586.04,1989.29 1606.22,1989.29 1618.67,2001.73C 1631.11,2014.18 1631.11,2034.35 1618.67,2046.8 Z "/>
	<path fill="#FFFFFF" fill-opacity="1" stroke-width="5" stroke-linejoin="round" stroke="#C9C9C9" stroke-opacity="1" d="M 1483.47,2182C 1471.02,2194.44 1450.84,2194.44 1438.4,2182C 1425.96,2169.55 1425.96,2149.38 1438.4,2136.93C 1450.84,2124.49 1471.02,2124.49 1483.47,2136.93C 1495.91,2149.38 1495.91,2169.55 1483.47,2182 Z "/>
	<line fill="none" stroke-width="10" stroke-linejoin="round" stroke="#C9C9C9" stroke-opacity="1" x1="1686.27" y1="1844" x2="1686.27" y2="1934.13"/>
	<line fill="none" stroke-width="10" stroke-linejoin="round" stroke="#C9C9C9" stroke-opacity="1" x1="1731.33" y1="1798.93" x2="1821.47" y2="1798.93"/>
	<path fill="#FFFFFF" fill-opacity="1" stroke-width="5" stroke-linejoin="round" stroke="#C9C9C9" stroke-opacity="1" d="M 1844,1821.47C 1831.56,1833.91 1811.38,1833.91 1798.93,1821.47C 1786.49,1809.02 1786.49,1788.84 1798.93,1776.4C 1811.38,1763.96 1831.56,1763.96 1844,1776.4C 1856.44,1788.84 1856.44,1809.02 1844,1821.47 Z "/>
	<path fill="#FFFFFF" fill-opacity="1" stroke-width="5" stroke-linejoin="round" stroke="#C9C9C9" stroke-opacity="1" d="M 1708.8,1956.67C 1696.36,1969.11 1676.18,1969.11 1663.73,1956.67C 1651.29,1944.22 1651.29,1924.04 1663.73,1911.6C 1676.18,1899.16 1696.36,1899.16 1708.8,1911.6C 1721.24,1924.04 1721.24,1944.22 1708.8,1956.67 Z "/>
	<line fill="none" stroke-width="10" stroke-linejoin="round" stroke="#C9C9C9" stroke-opacity="1" x1="1911.6" y1="1618.67" x2="1911.6" y2="1708.8"/>
	<line fill="none" stroke-width="10" stroke-linejoin="round" stroke="#C9C9C9" stroke-opacity="1" x1="1956.67" y1="1573.6" x2="2046.8" y2="1573.6"/>
	<path fill="#FFFFFF" fill-opacity="1" stroke-width="5" stroke-linejoin="round" stroke="#C9C9C9" stroke-opacity="1" d="M 2069.33,1596.13C 2056.89,1608.58 2036.71,1608.58 2024.27,1596.13C 2011.82,1583.69 2011.82,1563.51 2024.27,1551.07C 2036.71,1538.62 2056.89,1538.62 2069.33,1551.07C 2081.78,1563.51 2081.78,1583.69 2069.33,1596.13 Z "/>
	<path fill="#FFFFFF" fill-opacity="1" stroke-width="5" stroke-linejoin="round" stroke="#C9C9C9" stroke-opacity="1" d="M 1934.13,1731.33C 1921.69,1743.78 1901.51,1743.78 1889.07,1731.33C 1876.62,1718.89 1876.62,1698.71 1889.07,1686.27C 1901.51,1673.82 1921.69,1673.82 1934.13,1686.27C 1946.58,1698.71 1946.58,1718.89 1934.13,1731.33 Z "/>
	<line fill="none" stroke-width="10" stroke-linejoin="round" stroke="#C9C9C9" stroke-opacity="1" x1="2136.93" y1="1393.33" x2="2136.93" y2="1483.47"/>
	<line fill="none" stroke-width="10" stroke-linejoin="round" stroke="#C9C9C9" stroke-opacity="1" x1="2136.93" y1="1213.07" x2="2136.93" y2="1303.2"/>
	<line fill="none" stroke-width="20" stroke-linejoin="round" stroke="#FF0000" stroke-opacity="1" x1="1911.6" y1="1393.33" x2="1911.6" y2="1528.53"/>
	<line fill="none" stroke-width="20" stroke-linejoin="round" stroke="#FF0000" stroke-opacity="1" x1="1460.93" y1="1844" x2="1460.93" y2="1979.2"/>
	<line fill="none" stroke-width="20" stroke-linejoin="round" stroke="#FF0000" stroke-opacity="1" x1="1415.87" y1="2024.27" x2="1280.67" y2="2024.27"/>
	<line fill="none" stroke-width="20" stroke-linejoin="round" stroke="#FF0000" stroke-opacity="1" x1="1641.2" y1="1798.93" x2="1506" y2="1798.93"/>
	<line fill="none" stroke-width="20" stroke-linejoin="round" stroke="#FF0000" stroke-opacity="1" x1="1866.53" y1="1573.6" x2="1686.27" y2="1573.6"/>
	<line fill="none" stroke-width="20" stroke-linejoin="round" stroke="#FF0000" stroke-opacity="1" x1="1686.27" y1="1618.67" x2="1686.27" y2="1753.87"/>
	<line fill="none" stroke-width="10" stroke-linejoin="round" stroke="#C9C9C9" stroke-opacity="1" x1="2182" y1="1348.27" x2="2272.13" y2="1348.27"/>
	<path fill="#FF0000" fill-opacity="1" stroke-width="10" stroke-linejoin="round" stroke="#FF0000" stroke-opacity="1" d="M 1506,1844C 1481.11,1868.89 1440.76,1868.89 1415.87,1844C 1390.98,1819.11 1390.98,1778.76 1415.87,1753.87C 1440.76,1728.98 1481.11,1728.98 1506,1753.87C 1530.89,1778.76 1530.89,1819.11 1506,1844 Z "/>
	<path fill="#FF0000" fill-opacity="1" stroke-width="10" stroke-linejoin="round" stroke="#FF0000" stroke-opacity="1" d="M 1506,2069.33C 1530.89,2044.44 1530.89,2004.09 1506,1979.2C 1481.11,1954.31 1440.76,1954.31 1415.87,1979.2C 1390.98,2004.09 1390.98,2044.44 1415.87,2069.33C 1440.76,2094.22 1481.11,2094.22 1506,2069.33 Z "/>
	<path fill="#FF0000" fill-opacity="1" stroke-width="10" stroke-linejoin="round" stroke="#FF0000" stroke-opacity="1" d="M 1280.67,2069.33C 1305.56,2044.44 1305.56,2004.09 1280.67,1979.2C 1255.78,1954.31 1215.42,1954.31 1190.53,1979.2C 1165.64,2004.09 1165.64,2044.44 1190.53,2069.33C 1215.42,2094.22 1255.78,2094.22 1280.67,2069.33 Z "/>
	<path fill="#FF0000" fill-opacity="1" stroke-width="10" stroke-linejoin="round" stroke="#FF0000" stroke-opacity="1" d="M 2182,1393.33C 2157.11,1418.22 2116.76,1418.22 2091.87,1393.33C 2066.98,1368.44 2066.98,1328.09 2091.87,1303.2C 2116.76,1278.31 2157.11,1278.31 2182,1303.2C 2206.89,1328.09 2206.89,1368.44 2182,1393.33 Z "/>
	<path fill="#FF0000" fill-opacity="1" stroke-width="10" stroke-linejoin="round" stroke="#FF0000" stroke-opacity="1" d="M 1731.33,1844C 1756.22,1819.11 1756.22,1778.76 1731.33,1753.87C 1706.44,1728.98 1666.09,1728.98 1641.2,1753.87C 1616.31,1778.76 1616.31,1819.11 1641.2,1844C 1666.09,1868.89 1706.44,1868.89 1731.33,1844 Z "/>
	<path fill="#FF0000" fill-opacity="1" stroke-width="10" stroke-linejoin="round" stroke="#FF0000" stroke-opacity="1" d="M 1731.33,1618.67C 1706.44,1643.56 1666.09,1643.56 1641.2,1618.67C 1616.31,1593.78 1616.31,1553.42 1641.2,1528.53C 1666.09,1503.64 1706.44,1503.64 1731.33,1528.53C 1756.22,1553.42 1756.22,1593.78 1731.33,1618.67 Z "/>
	<path fill="#FF0000" fill-opacity="1" stroke-width="10" stroke-linejoin="round" stroke="#FF0000" stroke-opacity="1" d="M 1956.67,1618.67C 1981.56,1593.78 1981.56,1553.42 1956.67,1528.53C 1931.78,1503.64 1891.42,1503.64 1866.53,1528.53C 1841.64,1553.42 1841.64,1593.78 1866.53,1618.67C 1891.42,1643.56 1931.78,1643.56 1956.67,1618.67 Z "/>
	<path fill="#FF0000" fill-opacity="1" stroke-width="10" stroke-linejoin="round" stroke="#FF0000" stroke-opacity="1" d="M 1956.67,1393.33C 1931.78,1418.22 1891.42,1418.22 1866.53,1393.33C 1841.64,1368.44 1841.64,1328.09 1866.53,1303.2C 1891.42,1278.31 1931.78,1278.31 1956.67,1303.2C 1981.56,1328.09 1981.56,1368.44 1956.67,1393.33 Z "/>
	<path fill="#FFFFFF" fill-opacity="1" stroke-width="5" stroke-linejoin="round" stroke="#C9C9C9" stroke-opacity="1" d="M 2294.67,1370.8C 2282.22,1383.24 2262.04,1383.24 2249.6,1370.8C 2237.15,1358.35 2237.15,1338.18 2249.6,1325.73C 2262.04,1313.29 2282.22,1313.29 2294.67,1325.73C 2307.11,1338.18 2307.11,1358.35 2294.67,1370.8 Z "/>
	<path fill="#FFFFFF" fill-opacity="1" stroke-width="5" stroke-linejoin="round" stroke="#C9C9C9" stroke-opacity="1" d="M 2159.47,1506C 2147.02,1518.44 2126.84,1518.44 2114.4,1506C 2101.95,1493.55 2101.95,1473.38 2114.4,1460.93C 2126.84,1448.49 2147.02,1448.49 2159.47,1460.93C 2171.91,1473.38 2171.91,1493.55 2159.47,1506 Z "/>
	<path fill="#FFFFFF" fill-opacity="1" stroke-width="5" stroke-linejoin="round" stroke="#C9C9C9" stroke-opacity="1" d="M 2159.47,1235.6C 2147.02,1248.05 2126.84,1248.05 2114.4,1235.6C 2101.95,1223.16 2101.95,1202.98 2114.4,1190.53C 2126.84,1178.09 2147.02,1178.09 2159.47,1190.53C 2171.91,1202.98 2171.91,1223.16 2159.47,1235.6 Z "/>
</svg>
